<svg width="24" height="24" viewBox="0 0 24 24" fill="none" xmlns="http://www.w3.org/2000/svg">
<path d="M18 12.5C17.803 12.4999 17.6078 12.4611 17.4258 12.3856C17.2438 12.3101 17.0784 12.1995 16.9391 12.0602C16.7998 11.9208 16.6894 11.7553 16.614 11.5733C16.5387 11.3912 16.4999 11.196 16.5 10.999C16.5001 10.802 16.5389 10.6068 16.6144 10.4248C16.6899 10.2428 16.8005 10.0774 16.9398 9.93813C17.0792 9.79884 17.2447 9.68837 17.4267 9.61303C17.6088 9.53768 17.804 9.49893 18.001 9.499C18.399 9.49913 18.7806 9.65735 19.0619 9.93884C19.3432 10.2203 19.5011 10.602 19.501 11C19.5009 11.398 19.3427 11.7796 19.0612 12.0609C18.7797 12.3422 18.398 12.5001 18 12.5ZM12 12.5C11.602 12.4999 11.2204 12.3417 10.9391 12.0602C10.6578 11.7787 10.4999 11.397 10.5 10.999C10.5001 10.601 10.6583 10.2194 10.9398 9.93813C11.2213 9.65683 11.603 9.49887 12.001 9.499C12.399 9.49913 12.7806 9.65735 13.0619 9.93884C13.3432 10.2203 13.5011 10.602 13.501 11C13.5009 11.398 13.3427 11.7796 13.0612 12.0609C12.7797 12.3422 12.398 12.5001 12 12.5ZM6 12.5C5.60204 12.4999 5.22044 12.3417 4.93913 12.0602C4.65783 11.7787 4.49987 11.397 4.5 10.999C4.50013 10.601 4.65835 10.2194 4.93984 9.93813C5.22133 9.65683 5.60304 9.49887 6.001 9.499C6.39896 9.49913 6.78056 9.65735 7.06187 9.93884C7.34317 10.2203 7.50113 10.602 7.501 11C7.50087 11.398 7.34265 11.7796 7.06116 12.0609C6.77967 12.3422 6.39796 12.5001 6 12.5ZM12 0C5.925 0 1 4.925 1 11C1 13.653 1.94 16.086 3.504 17.986L2 24L7.336 20.951C8.79422 21.6405 10.387 21.9988 12 22C18.075 22 23 17.075 23 11C23 4.925 18.075 0 12 0Z" fill="#767676"/>
</svg>
